{"title":"The.Blacklist.S01.Season.1.720p.5.1Ch.BluRay.ReEnc-DeeJayAhmed","uid":14574839,"size":8036089683,"categoryP":"other","categoryS":"other","magnet":"?xt=urn:btih:8503a8721a253de68e358ffce377c9d01aa6da66&amp;dn=The.Blacklist.S01.Season.1.720p.5.1Ch.BluRay.ReEnc-DeeJayAhmed&amp;tr=udp%3A%2F%2Ftracker.leechers-paradise.org%3A6969&amp;tr=udp%3A%2F%2Fzer0day.ch%3A1337&amp;tr=udp%3A%2F%2Fopen.demonii.com%3A1337&amp;tr=udp%3A%2F%2Ftracker.coppersurfer.tk%3A6969&amp;tr=udp%3A%2F%2Fexodus.desync.com%3A6969","seeders":2,"leechers":5,"uploader":"DeeJayPirate","files":47,"time":1462835199,"description":"DeeJayAhmed  \nhttps://www.DeeJayAhmed.com\r\r\nKeep Seeding!!=)) \r\nDo Comment On The A/V Quality Considering The Size Of The File..!\r\nHelp Me By Donating Bitcoins : 14i1UCWye2SCjoAHR5u6LDswWgAy55dxAv\r\n\r\nVideo \r\nID : 1 \r\nFormat : AVC \r\nFormat/Info : Advanced Video Codec \r\nFormat profile :    \r\nFormat settings, CABAC : Yes \r\nFormat settings, ReFrames : 8 frames \r\nCodec ID : V_MPEG4/ISO/AVC \r\nDuration : 45mn 12s \r\nBit rate : 948 Kbps \r\nWidth : 1 280 pixels \r\nHeight : 720 pixels \r\nDisplay aspect ratio : 16:9 \r\nFrame rate mode : Constant \r\nFrame rate : 23.976 (24000/1001) fps \r\nColor space : YUV \r\nChroma subsampling : 4:2:0 \r\nBit depth : 8 bits \r\nScan type : Progressive \r\nBits/(Pixel*Frame) : 0.043 \r\nStream size : 306 MiB (83%) \r\nDefault : Yes \r\nForced : No \r\n\r\nAudio \r\nID : 2 \r\nFormat : AAC \r\nFormat/Info : Advanced Audio Codec \r\nFormat profile : HE-AAC / LC \r\nCodec ID : A_AAC \r\nDuration : 45mn 12s \r\nBit rate : 192 Kbps \r\nChannel(s) : 6 channels \r\nChannel positions : Front: L C R, Side: L R, LFE \r\nSampling rate : 48.0 KHz / 24.0 KHz \r\nFrame rate : 23.438 fps (1024 spf) \r\nCompression mode : Lossy \r\nDelay relative to video : 31ms \r\nStream size : 61.3 MiB (17%) \r\nLanguage : English \r\nDefault : Yes \r\nForced : No","torrent":{"xt":"urn:btih:8503a8721a253de68e358ffce377c9d01aa6da66","amp;dn":"The.Blacklist.S01.Season.1.720p.5.1Ch.BluRay.ReEnc-DeeJayAhmed","amp;tr":["udp%3A%2F%2Ftracker.leechers-paradise.org%3A6969","udp%3A%2F%2Fzer0day.ch%3A1337","udp%3A%2F%2Fopen.demonii.com%3A1337","udp%3A%2F%2Ftracker.coppersurfer.tk%3A6969","udp%3A%2F%2Fexodus.desync.com%3A6969"],"infoHash":"8503a8721a253de68e358ffce377c9d01aa6da66","infoHashBuffer":{"type":"Buffer","data":[133,3,168,114,26,37,61,230,142,53,143,252,227,119,201,208,26,166,218,102]},"announce":[],"urlList":[]}}